<svg width="400" height="280" viewBox="0 0 400 280" xmlns="http://www.w3.org/2000/svg">
  <defs>
    <linearGradient id="grad" x1="0" y1="0" x2="1" y2="1">
      <stop offset="0%" stop-color="#6ec9ff" stop-opacity="0.9"/>
      <stop offset="100%" stop-color="#b388ff" stop-opacity="0.9"/>
    </linearGradient>
    <filter id="glow" x="-50%" y="-50%" width="200%" height="200%">
      <feGaussianBlur stdDeviation="3.5" result="coloredBlur"/>
      <feMerge><feMergeNode in="coloredBlur"/><feMergeNode in="SourceGraphic"/></feMerge>
    </filter>
  </defs>
  <rect width="100%" height="100%" rx="16" ry="16" fill="rgba(255,255,255,0.04)" stroke="rgba(255,255,255,0.08)"/>
  <circle cx="200" cy="200" r="28.0" fill="none" stroke="rgba(255,255,255,0.15)" stroke-dasharray="4 4"/>
<circle cx="200" cy="200" r="56.0" fill="none" stroke="rgba(255,255,255,0.15)" stroke-dasharray="4 4"/>
<circle cx="200" cy="200" r="84.0" fill="none" stroke="rgba(255,255,255,0.15)" stroke-dasharray="4 4"/>
<circle cx="200" cy="200" r="112.0" fill="none" stroke="rgba(255,255,255,0.15)" stroke-dasharray="4 4"/>
<circle cx="200" cy="200" r="140.0" fill="none" stroke="rgba(255,255,255,0.15)" stroke-dasharray="4 4"/>

  <line x1="200" y1="200" x2="200.0" y2="60.0" stroke="rgba(255,255,255,0.15)"/>
<text x="200.0" y="39.0" fill="#e9edf5" font-size="11" text-anchor="middle">Python</text>
<line x1="200" y1="200" x2="299.0" y2="101.0" stroke="rgba(255,255,255,0.15)"/>
<text x="313.8" y="86.2" fill="#e9edf5" font-size="11" text-anchor="middle">SQL</text>
<line x1="200" y1="200" x2="340.0" y2="200.0" stroke="rgba(255,255,255,0.15)"/>
<text x="361.0" y="200.0" fill="#e9edf5" font-size="11" text-anchor="middle">ETL</text>
<line x1="200" y1="200" x2="299.0" y2="299.0" stroke="rgba(255,255,255,0.15)"/>
<text x="313.8" y="313.8" fill="#e9edf5" font-size="11" text-anchor="middle">Pandas</text>
<line x1="200" y1="200" x2="200.0" y2="340.0" stroke="rgba(255,255,255,0.15)"/>
<text x="200.0" y="361.0" fill="#e9edf5" font-size="11" text-anchor="middle">NumPy</text>
<line x1="200" y1="200" x2="101.0" y2="299.0" stroke="rgba(255,255,255,0.15)"/>
<text x="86.2" y="313.8" fill="#e9edf5" font-size="11" text-anchor="middle">BI</text>
<line x1="200" y1="200" x2="60.0" y2="200.0" stroke="rgba(255,255,255,0.15)"/>
<text x="39.0" y="200.0" fill="#e9edf5" font-size="11" text-anchor="middle">Linux</text>
<line x1="200" y1="200" x2="101.0" y2="101.0" stroke="rgba(255,255,255,0.15)"/>
<text x="86.2" y="86.2" fill="#e9edf5" font-size="11" text-anchor="middle">Git</text>

  <polygon points="200.0,71.2 287.1,112.9 326.0,200.0 291.1,291.1 200.0,321.8 118.8,281.2 90.8,200.0 116.8,116.8" fill="url(#grad)" opacity="0.3" filter="url(#glow)"/>
  <polyline points="200.0,71.2 287.1,112.9 326.0,200.0 291.1,291.1 200.0,321.8 118.8,281.2 90.8,200.0 116.8,116.8 200.0,71.2"
            fill="none" stroke="url(#grad)" stroke-width="2.5"/>
  <text x="200" y="265" text-anchor="middle" fill="#b9c2d3" font-size="12">Core Technical Radar</text>
</svg>