<svg width="800" height="571" viewBox="0 0 800 571" xmlns="http://www.w3.org/2000/svg">
  <defs>
    <linearGradient id="grad" x1="0" y1="0" x2="1" y2="1">
      <stop offset="0%" stop-color="#6ec9ff"/>
      <stop offset="100%" stop-color="#b388ff"/>
    </linearGradient>
    <filter id="glow" x="-50%" y="-50%" width="200%" height="200%">
      <feGaussianBlur stdDeviation="2.5" result="coloredBlur"/>
      <feMerge><feMergeNode in="coloredBlur"/><feMergeNode in="SourceGraphic"/></feMerge>
    </filter>
  </defs>
  <rect width="100%" height="100%" rx="16" ry="16" fill="rgba(255,255,255,0.04)" stroke="rgba(255,255,255,0.08)"/>
  <text x="30" y="40" fill="#e9edf5" font-weight="bold">Programming & Data</text><rect x="30" y="58" width="600" height="12" rx="6" fill="rgba(255,255,255,0.08)" /><rect x="30" y="58" width="552.0" height="12" rx="6" fill="url(#grad)" filter="url(#glow)"/><text x="642" y="69" fill="#b9c2d3" font-size="12">Python — 92%</text><rect x="30" y="80" width="600" height="12" rx="6" fill="rgba(255,255,255,0.08)" /><rect x="30" y="80" width="528.0" height="12" rx="6" fill="url(#grad)" filter="url(#glow)"/><text x="642" y="91" fill="#b9c2d3" font-size="12">SQL — 88%</text><rect x="30" y="102" width="600" height="12" rx="6" fill="rgba(255,255,255,0.08)" /><rect x="30" y="102" width="504.0" height="12" rx="6" fill="url(#grad)" filter="url(#glow)"/><text x="642" y="113" fill="#b9c2d3" font-size="12">Git — 84%</text><rect x="30" y="124" width="600" height="12" rx="6" fill="rgba(255,255,255,0.08)" /><rect x="30" y="124" width="480.0" height="12" rx="6" fill="url(#grad)" filter="url(#glow)"/><text x="642" y="135" fill="#b9c2d3" font-size="12">Linux/Bash — 80%</text><text x="30" y="159" fill="#e9edf5" font-weight="bold">Data Workflows & Tools</text><rect x="30" y="177" width="600" height="12" rx="6" fill="rgba(255,255,255,0.08)" /><rect x="30" y="177" width="540.0" height="12" rx="6" fill="url(#grad)" filter="url(#glow)"/><text x="642" y="188" fill="#b9c2d3" font-size="12">ETL Pipelines — 90%</text><rect x="30" y="199" width="600" height="12" rx="6" fill="rgba(255,255,255,0.08)" /><rect x="30" y="199" width="540.0" height="12" rx="6" fill="url(#grad)" filter="url(#glow)"/><text x="642" y="210" fill="#b9c2d3" font-size="12">Data Cleaning/Wrangling — 90%</text><rect x="30" y="221" width="600" height="12" rx="6" fill="rgba(255,255,255,0.08)" /><rect x="30" y="221" width="516.0" height="12" rx="6" fill="url(#grad)" filter="url(#glow)"/><text x="642" y="232" fill="#b9c2d3" font-size="12">Data Visualization — 86%</text><rect x="30" y="243" width="600" height="12" rx="6" fill="rgba(255,255,255,0.08)" /><rect x="30" y="243" width="492.0" height="12" rx="6" fill="url(#grad)" filter="url(#glow)"/><text x="642" y="254" fill="#b9c2d3" font-size="12">Business Intelligence (BI) — 82%</text><rect x="30" y="265" width="600" height="12" rx="6" fill="rgba(255,255,255,0.08)" /><rect x="30" y="265" width="510.0" height="12" rx="6" fill="url(#grad)" filter="url(#glow)"/><text x="642" y="276" fill="#b9c2d3" font-size="12">EDA — 85%</text><rect x="30" y="287" width="600" height="12" rx="6" fill="rgba(255,255,255,0.08)" /><rect x="30" y="287" width="498.0" height="12" rx="6" fill="url(#grad)" filter="url(#glow)"/><text x="642" y="298" fill="#b9c2d3" font-size="12">Math/Statistics — 83%</text><rect x="30" y="309" width="600" height="12" rx="6" fill="rgba(255,255,255,0.08)" /><rect x="30" y="309" width="480.0" height="12" rx="6" fill="url(#grad)" filter="url(#glow)"/><text x="642" y="320" fill="#b9c2d3" font-size="12">Requests/HTTP — 80%</text><rect x="30" y="331" width="600" height="12" rx="6" fill="rgba(255,255,255,0.08)" /><rect x="30" y="331" width="450.0" height="12" rx="6" fill="url(#grad)" filter="url(#glow)"/><text x="642" y="342" fill="#b9c2d3" font-size="12">Scikit-Learn — 75%</text><rect x="30" y="353" width="600" height="12" rx="6" fill="rgba(255,255,255,0.08)" /><rect x="30" y="353" width="510.0" height="12" rx="6" fill="url(#grad)" filter="url(#glow)"/><text x="642" y="364" fill="#b9c2d3" font-size="12">Matplotlib/Seaborn — 85%</text><rect x="30" y="375" width="600" height="12" rx="6" fill="rgba(255,255,255,0.08)" /><rect x="30" y="375" width="552.0" height="12" rx="6" fill="url(#grad)" filter="url(#glow)"/><text x="642" y="386" fill="#b9c2d3" font-size="12">NumPy/Pandas — 92%</text><text x="30" y="410" fill="#e9edf5" font-weight="bold">Interpersonal & Leadership</text><rect x="30" y="428" width="600" height="12" rx="6" fill="rgba(255,255,255,0.08)" /><rect x="30" y="428" width="540.0" height="12" rx="6" fill="url(#grad)" filter="url(#glow)"/><text x="642" y="439" fill="#b9c2d3" font-size="12">Problem Solving — 90%</text><rect x="30" y="450" width="600" height="12" rx="6" fill="rgba(255,255,255,0.08)" /><rect x="30" y="450" width="510.0" height="12" rx="6" fill="url(#grad)" filter="url(#glow)"/><text x="642" y="461" fill="#b9c2d3" font-size="12">Teamwork — 85%</text><rect x="30" y="472" width="600" height="12" rx="6" fill="rgba(255,255,255,0.08)" /><rect x="30" y="472" width="492.0" height="12" rx="6" fill="url(#grad)" filter="url(#glow)"/><text x="642" y="483" fill="#b9c2d3" font-size="12">Technical Leadership — 82%</text><rect x="30" y="494" width="600" height="12" rx="6" fill="rgba(255,255,255,0.08)" /><rect x="30" y="494" width="480.0" height="12" rx="6" fill="url(#grad)" filter="url(#glow)"/><text x="642" y="505" fill="#b9c2d3" font-size="12">Strategy — 80%</text><rect x="30" y="516" width="600" height="12" rx="6" fill="rgba(255,255,255,0.08)" /><rect x="30" y="516" width="468.0" height="12" rx="6" fill="url(#grad)" filter="url(#glow)"/><text x="642" y="527" fill="#b9c2d3" font-size="12">Public Speaking — 78%</text>
  <text x="330.0" y="551" text-anchor="middle" fill="#b9c2d3" font-size="12">Skill Coverage (self-assessed)</text>
</svg>